REM DIRINDEX 1\2,1\3\5,1\3\6,1\4\7,1\4\8
REM DIRNAME folder01,folder02,folder03,folder04,folder05,folder06,folder07,folder08
TITLE ""
FILE "EG_E3_10.mp3" MP3
  TRACK 01 AUDIO
    TITLE "0:"
    INDEX 01 00:00:00
  TRACK 02 AUDIO
    TITLE "5:cjc139_1499"
    INDEX 01 00:00:17
  TRACK 03 AUDIO
    TITLE "6:cjc139_1500"
    INDEX 01 00:03:08
  TRACK 04 AUDIO
    TITLE "5:cjc139_1501"
    INDEX 01 00:05:67
  TRACK 05 AUDIO
    TITLE "6:cjc139_1502"
    INDEX 01 00:08:40
  TRACK 06 AUDIO
    TITLE "5:cjc139_1503"
    INDEX 01 00:11:25
  TRACK 07 AUDIO
    TITLE "6:cjc139_1504"
    INDEX 01 00:14:07
  TRACK 08 AUDIO
    TITLE "5:cjc139_1505"
    INDEX 01 00:16:65
  TRACK 09 AUDIO
    TITLE "6:cjc139_1506"
    INDEX 01 00:19:07
  TRACK 10 AUDIO
    TITLE "5:cjc139_1507"
    INDEX 01 00:21:64
  TRACK 11 AUDIO
    TITLE "6:cjc139_1508"
    INDEX 01 00:24:37
  TRACK 12 AUDIO
    TITLE "5:cjc139_1509"
    INDEX 01 00:27:22
  TRACK 13 AUDIO
    TITLE "6:cjc139_1510"
    INDEX 01 00:30:10
  TRACK 14 AUDIO
    TITLE "5:cjc139_1511"
    INDEX 01 00:32:70
  TRACK 15 AUDIO
    TITLE "6:cjc139_1512"
    INDEX 01 00:35:23
  TRACK 16 AUDIO
    TITLE "5:cjc139_1513"
    INDEX 01 00:38:08
  TRACK 17 AUDIO
    TITLE "6:cjc139_1514"
    INDEX 01 00:40:42
  TRACK 18 AUDIO
    TITLE "5:cjc139_1515"
    INDEX 01 00:43:27
  TRACK 19 AUDIO
    TITLE "6:cjc139_1516"
    INDEX 01 00:45:63
  TRACK 20 AUDIO
    TITLE "5:cjc139_1517"
    INDEX 01 00:48:49
  TRACK 21 AUDIO
    TITLE "6:cjc139_1518"
    INDEX 01 00:50:70
  TRACK 22 AUDIO
    TITLE "5:cjc139_1519"
    INDEX 01 00:53:53
  TRACK 23 AUDIO
    TITLE "6:cjc139_1520"
    INDEX 01 00:56:41
  TRACK 24 AUDIO
    TITLE "5:cjc139_1521"
    INDEX 01 00:59:26
  TRACK 25 AUDIO
    TITLE "6:cjc139_1522"
    INDEX 01 01:01:44
  TRACK 26 AUDIO
    TITLE "5:cjc139_1523"
    INDEX 01 01:04:31
  TRACK 27 AUDIO
    TITLE "6:cjc139_1524"
    INDEX 01 01:06:71
  TRACK 28 AUDIO
    TITLE "5:cjc139_1525"
    INDEX 01 01:09:57
  TRACK 29 AUDIO
    TITLE "6:cjc139_1526"
    INDEX 01 01:12:32
  TRACK 30 AUDIO
    TITLE "5:cjc139_1527"
    INDEX 01 01:15:21
  TRACK 31 AUDIO
    TITLE "6:cjc139_1528"
    INDEX 01 01:17:71
  TRACK 32 AUDIO
    TITLE "5:cjc139_1529"
    INDEX 01 01:20:55
  TRACK 33 AUDIO
    TITLE "6:cjc139_1530"
    INDEX 01 01:23:38
  TRACK 34 AUDIO
    TITLE "5:cjc139_1531"
    INDEX 01 01:26:23
  TRACK 35 AUDIO
    TITLE "6:cjc139_1532"
    INDEX 01 01:28:65
  TRACK 36 AUDIO
    TITLE "5:cjc139_1533"
    INDEX 01 01:31:49
  TRACK 37 AUDIO
    TITLE "6:cjc139_1534"
    INDEX 01 01:34:34
  TRACK 38 AUDIO
    TITLE "5:cjc139_1535"
    INDEX 01 01:37:22
  TRACK 39 AUDIO
    TITLE "6:cjc139_1536"
    INDEX 01 01:39:41
  TRACK 40 AUDIO
    TITLE "5:cjc139_1537"
    INDEX 01 01:42:24
  TRACK 41 AUDIO
    TITLE "6:cjc139_1538"
    INDEX 01 01:45:30
  TRACK 42 AUDIO
    TITLE "5:cjc139_1539"
    INDEX 01 01:48:16
  TRACK 43 AUDIO
    TITLE "6:cjc139_1540"
    INDEX 01 01:51:38
  TRACK 44 AUDIO
    TITLE "5:cjc139_1541"
    INDEX 01 01:54:19
  TRACK 45 AUDIO
    TITLE "6:cjc139_1542"
    INDEX 01 01:57:17
  TRACK 46 AUDIO
    TITLE "5:cjc139_1543"
    INDEX 01 02:00:00
  TRACK 47 AUDIO
    TITLE "6:cjc139_1544"
    INDEX 01 02:03:26
  TRACK 48 AUDIO
    TITLE "5:cjc139_1545"
    INDEX 01 02:06:10
  TRACK 49 AUDIO
    TITLE "6:cjc139_1546"
    INDEX 01 02:10:24
  TRACK 50 AUDIO
    TITLE "5:cjc139_1547"
    INDEX 01 02:13:09
  TRACK 51 AUDIO
    TITLE "6:cjc139_1548"
    INDEX 01 02:17:08
  TRACK 52 AUDIO
    TITLE "5:cjc139_1549"
    INDEX 01 02:19:68
  TRACK 53 AUDIO
    TITLE "6:cjc139_1550"
    INDEX 01 02:24:08
  TRACK 54 AUDIO
    TITLE "5:cjc139_1551"
    INDEX 01 02:26:64
  TRACK 55 AUDIO
    TITLE "6:cjc139_1552"
    INDEX 01 02:30:17
  TRACK 56 AUDIO
    TITLE "5:cjc139_1553"
    INDEX 01 02:33:01
  TRACK 57 AUDIO
    TITLE "6:cjc139_1554"
    INDEX 01 02:35:08
  TRACK 58 AUDIO
    TITLE "5:cjc139_1555"
    INDEX 01 02:37:68
  TRACK 59 AUDIO
    TITLE "6:cjc139_1556"
    INDEX 01 02:40:66
  TRACK 60 AUDIO
    TITLE "5:cjc139_1557"
    INDEX 01 02:43:49
  TRACK 61 AUDIO
    TITLE "6:cjc139_1558"
    INDEX 01 02:46:41
  TRACK 62 AUDIO
    TITLE "5:cjc139_1559"
    INDEX 01 02:49:28
  TRACK 63 AUDIO
    TITLE "6:cjc139_1560"
    INDEX 01 02:53:00
  TRACK 64 AUDIO
    TITLE "5:cjc139_1561"
    INDEX 01 02:55:60
  TRACK 65 AUDIO
    TITLE "6:cjc139_1562"
    INDEX 01 02:58:41
  TRACK 66 AUDIO
    TITLE "5:cjc139_1563"
    INDEX 01 03:01:25
  TRACK 67 AUDIO
    TITLE "6:cjc139_1564"
    INDEX 01 03:03:67
  TRACK 68 AUDIO
    TITLE "5:cjc139_1565"
    INDEX 01 03:06:52
  TRACK 69 AUDIO
    TITLE "6:cjc139_1566"
    INDEX 01 03:10:28
  TRACK 70 AUDIO
    TITLE "5:cjc139_1567"
    INDEX 01 03:13:13
  TRACK 71 AUDIO
    TITLE "6:cjc139_1568"
    INDEX 01 03:16:38
  TRACK 72 AUDIO
    TITLE "5:cjc139_1569"
    INDEX 01 03:19:23
  TRACK 73 AUDIO
    TITLE "6:cjc139_1570"
    INDEX 01 03:21:53
  TRACK 74 AUDIO
    TITLE "5:cjc139_1571"
    INDEX 01 03:24:40
  TRACK 75 AUDIO
    TITLE "6:cjc139_1572"
    INDEX 01 03:27:44
  TRACK 76 AUDIO
    TITLE "5:cjc139_1573"
    INDEX 01 03:30:27
  TRACK 77 AUDIO
    TITLE "6:cjc139_1574"
    INDEX 01 03:33:23
  TRACK 78 AUDIO
    TITLE "5:cjc139_1575"
    INDEX 01 03:36:06
  TRACK 79 AUDIO
    TITLE "6:cjc139_1576"
    INDEX 01 03:39:20
  TRACK 80 AUDIO
    TITLE "5:cjc139_1577"
    INDEX 01 03:42:05
  TRACK 81 AUDIO
    TITLE "6:cjc139_1578"
    INDEX 01 03:45:01
  TRACK 82 AUDIO
    TITLE "5:cjc139_1579"
    INDEX 01 03:47:59
  TRACK 83 AUDIO
    TITLE "6:cjc139_1580"
    INDEX 01 03:51:27
  TRACK 84 AUDIO
    TITLE "5:cjc139_1581"
    INDEX 01 03:52:50
  TRACK 85 AUDIO
    TITLE "6:cjc139_1582"
    INDEX 01 03:56:26
  TRACK 86 AUDIO
    TITLE "5:cjc139_1583"
    INDEX 01 03:59:07
  TRACK 87 AUDIO
    TITLE "6:cjc139_1584"
    INDEX 01 04:02:33
  TRACK 88 AUDIO
    TITLE "5:cjc139_1585"
    INDEX 01 04:05:17
  TRACK 89 AUDIO
    TITLE "6:cjc139_1586"
    INDEX 01 04:08:00
  TRACK 90 AUDIO
    TITLE "5:cjc139_1587"
    INDEX 01 04:10:60
  TRACK 91 AUDIO
    TITLE "6:cjc139_1588"
    INDEX 01 04:14:14
  TRACK 92 AUDIO
    TITLE "5:cjc139_1589"
    INDEX 01 04:16:72
  TRACK 93 AUDIO
    TITLE "6:cjc139_1590"
    INDEX 01 04:19:29
  TRACK 94 AUDIO
    TITLE "5:cjc139_1591"
    INDEX 01 04:22:14
  TRACK 95 AUDIO
    TITLE "6:cjc139_1592"
    INDEX 01 04:25:24
  TRACK 96 AUDIO
    TITLE "5:cjc139_1593"
    INDEX 01 04:28:11
  TRACK 97 AUDIO
    TITLE "6:cjc139_1594"
    INDEX 01 04:31:50
  TRACK 98 AUDIO
    TITLE "5:cjc139_1595"
    INDEX 01 04:34:35
  TRACK 99 AUDIO
    TITLE "6:cjc139_1596"
    INDEX 01 04:37:39
  TRACK 100 AUDIO
    TITLE "5:cjc139_1597"
    INDEX 01 04:40:25
  TRACK 101 AUDIO
    TITLE "6:cjc139_1598"
    INDEX 01 04:44:37
  TRACK 102 AUDIO
    TITLE "5:cjc139_1599"
    INDEX 01 04:47:22
  TRACK 103 AUDIO
    TITLE "6:cjc139_1600"
    INDEX 01 04:50:63
  TRACK 104 AUDIO
    TITLE "5:cjc139_1601"
    INDEX 01 04:53:48
  TRACK 105 AUDIO
    TITLE "6:cjc139_1602"
    INDEX 01 04:57:08
  TRACK 106 AUDIO
    TITLE "5:cjc139_1603"
    INDEX 01 04:59:68
  TRACK 107 AUDIO
    TITLE "6:cjc139_1604"
    INDEX 01 05:02:70
  TRACK 108 AUDIO
    TITLE "5:cjc139_1605"
    INDEX 01 05:05:55
  TRACK 109 AUDIO
    TITLE "6:cjc139_1606"
    INDEX 01 05:09:31
  TRACK 110 AUDIO
    TITLE "5:cjc139_1607"
    INDEX 01 05:12:16
  TRACK 111 AUDIO
    TITLE "6:cjc139_1608"
    INDEX 01 05:15:38
  TRACK 112 AUDIO
    TITLE "5:cjc139_1609"
    INDEX 01 05:18:22
  TRACK 113 AUDIO
    TITLE "6:cjc139_1610"
    INDEX 01 05:20:70
  TRACK 114 AUDIO
    TITLE "5:cjc139_1611"
    INDEX 01 05:23:55
  TRACK 115 AUDIO
    TITLE "6:cjc139_1612"
    INDEX 01 05:25:63
  TRACK 116 AUDIO
    TITLE "5:cjc139_1613"
    INDEX 01 05:28:48
  TRACK 117 AUDIO
    TITLE "6:cjc139_1614"
    INDEX 01 05:31:46
  TRACK 118 AUDIO
    TITLE "5:cjc139_1615"
    INDEX 01 05:34:29
  TRACK 119 AUDIO
    TITLE "6:cjc139_1616"
    INDEX 01 05:37:45
  TRACK 120 AUDIO
    TITLE "5:cjc139_1617"
    INDEX 01 05:40:30
  TRACK 121 AUDIO
    TITLE "6:cjc139_1618"
    INDEX 01 05:43:61
  TRACK 122 AUDIO
    TITLE "5:cjc139_1619"
    INDEX 01 05:46:48
  TRACK 123 AUDIO
    TITLE "6:cjc139_1620"
    INDEX 01 05:49:60
  TRACK 124 AUDIO
    TITLE "5:cjc139_1621"
    INDEX 01 05:52:45
  TRACK 125 AUDIO
    TITLE "6:cjc139_1622"
    INDEX 01 05:56:44
  TRACK 126 AUDIO
    TITLE "0:"
    INDEX 01 05:59:33
